<?xml version="1.0" encoding="utf-8"?>
<svg xmlns="http://www.w3.org/2000/svg" viewBox="0 0 341.33334 341.33334" height="341.33334" width="341.33334" id="svg2" version="1.1">
  <defs id="defs6">
    <clipPath id="clipPath20" clipPathUnits="userSpaceOnUse">
      <path id="path18" d="M 0,256 H 256 V 0 H 0 Z"/>
    </clipPath>
  </defs>
  <g transform="matrix(1.3333333,0,0,-1.3333333,0,341.33333)" id="g10">
    <g id="g14">
      <g clip-path="url(#clipPath20)" id="g16">
        <g transform="translate(230.3193,140.0859)" id="g26">
          <path id="path28" style="fill:#488efe;fill-opacity:1;fill-rule:nonzero;stroke:none" d="m 0,0 -13.255,-7.075 c -1.743,-0.931 -3.66,-1.396 -5.586,-1.396 -1.917,0 -3.844,0.465 -5.587,1.396 l -68.206,36.404 c -2.985,1.588 -6.336,2.373 -9.685,2.373 -3.341,0 -6.701,-0.785 -9.685,-2.382 l -68.207,-36.395 c -1.744,-0.931 -3.669,-1.396 -5.586,-1.396 -1.927,0 -3.843,0.465 -5.587,1.396 L -204.638,0 c -6.992,3.733 -11.328,10.963 -11.328,18.886 0,7.924 4.336,15.153 11.328,18.886 l 81.461,43.46 c 6.399,3.414 13.619,5.222 20.858,5.222 7.248,0 14.468,-1.808 20.858,-5.222 L 0,37.772 C 6.992,34.039 11.328,26.81 11.328,18.886 11.328,10.963 6.992,3.733 0,0"/>
        </g>
        <g transform="translate(108.3496,63)" id="g30">
          <path id="path32" style="fill:none;stroke:#488efe;stroke-width:3;stroke-linecap:butt;stroke-linejoin:miter;stroke-miterlimit:10;stroke-dasharray:none;stroke-opacity:1" d="m 0,0 10.827,-5.776 c 5.412,-2.89 12.238,-2.89 17.649,-0.001 l 10.826,5.776 C 33.174,-2.882 26.429,-4.396 19.651,-4.396 12.874,-4.396 6.128,-2.881 0,0 Z"/>
        </g>
        <g transform="translate(241.6475,97.0273)" id="g34">
          <path id="path36" style="fill:#75f9a3;fill-opacity:1;fill-rule:nonzero;stroke:none" d="m 0,0 c 0,-7.923 -4.336,-15.152 -11.328,-18.886 l -81.461,-43.468 c -6.39,-3.415 -13.61,-5.213 -20.858,-5.213 -7.248,0 -14.469,1.798 -20.858,5.213 l -81.461,43.468 c -6.992,3.734 -11.328,10.963 -11.328,18.886 0,7.924 4.336,15.153 11.328,18.878 l 13.254,7.074 c 1.744,0.931 3.66,1.397 5.587,1.397 1.917,0 3.833,-0.466 5.586,-1.397 l 68.206,-36.394 c 2.985,-1.598 6.345,-2.383 9.686,-2.383 3.349,0 6.7,0.795 9.685,2.383 l 68.206,36.394 c 1.743,0.931 3.67,1.397 5.587,1.397 1.926,0 3.843,-0.466 5.586,-1.397 l 13.255,-7.065 C -4.336,15.153 0,7.924 0,0"/>
        </g>
        <g transform="translate(108.3496,63)" id="g38">
          <path id="path40" style="fill:#488efe;fill-opacity:1;fill-rule:nonzero;stroke:none" d="M 0,0 -0.859,-1.61 9.967,-7.387 c 2.989,-1.595 6.34,-2.382 9.686,-2.382 3.345,0 6.695,0.789 9.681,2.381 l 10.827,5.777 -1.637,3.262 C 32.642,-1.115 26.156,-2.57 19.651,-2.57 13.146,-2.57 6.661,-1.114 0.777,1.652 L -0.859,-1.61 0,0 -0.777,-1.652 c 6.372,-2.995 13.379,-4.569 20.428,-4.569 7.049,0 14.055,1.573 20.427,4.568 l -0.776,1.652 -0.86,1.611 -10.827,-5.777 c -2.423,-1.293 -5.19,-1.951 -7.962,-1.951 -2.774,0 -5.543,0.657 -7.966,1.952 L 0.859,1.611 0,0 -0.777,-1.652 Z"/>
        </g>
        <g transform="translate(211.4795,112.5107)" id="g42">
          <path id="path44" style="fill:#488efe;fill-opacity:1;fill-rule:nonzero;stroke:none" d="m 0,0 -68.208,-36.395 c -4.771,-2.546 -10.021,-3.819 -15.271,-3.819 -5.249,0 -10.499,1.273 -15.271,3.819 L -166.958,0 -180.21,-7.07 c -6.731,-3.593 -6.731,-13.24 0,-16.832 l 81.46,-43.466 c 4.772,-2.546 10.022,-3.82 15.271,-3.82 5.25,0 10.5,1.274 15.271,3.82 l 81.46,43.466 c 6.731,3.592 6.731,13.239 0,16.832 z"/>
        </g>
        <g transform="translate(211.4795,143.4839)" id="g46">
          <path id="path48" style="fill:#22b8e0;fill-opacity:1;fill-rule:nonzero;stroke:none" d="M 0,0 -29.023,-15.486 0,-30.973 l 13.252,7.071 c 6.731,3.592 6.731,13.24 0,16.831 z m -166.958,0 -13.252,-7.071 c -6.731,-3.591 -6.731,-13.239 0,-16.831 l 13.252,-7.071 29.023,15.487 z"/>
        </g>
        <g transform="translate(182.4561,127.9976)" id="g50">
          <path id="path52" style="fill:#1dacd3;fill-opacity:1;fill-rule:nonzero;stroke:none" d="m 0,0 -39.185,-20.908 c -4.771,-2.547 -10.021,-3.819 -15.271,-3.819 -5.249,0 -10.498,1.272 -15.27,3.819 L -108.911,0 l -29.024,-15.487 68.209,-36.394 c 4.772,-2.547 10.021,-3.82 15.27,-3.82 5.25,0 10.5,1.273 15.271,3.82 l 68.208,36.394 z"/>
        </g>
        <g transform="translate(128.0005,214.6719)" id="g54">
          <path id="path56" style="fill:#75f9a3;fill-opacity:1;fill-rule:nonzero;stroke:none" d="m 0,0 c -5.249,0 -10.499,-1.273 -15.271,-3.82 l -81.46,-43.466 c -6.731,-3.592 -6.731,-13.24 0,-16.831 l 13.252,-7.071 68.208,36.396 c 4.772,2.545 10.022,3.818 15.271,3.818 5.25,0 10.5,-1.273 15.271,-3.818 l 68.208,-36.396 13.252,7.071 c 6.731,3.591 6.731,13.239 0,16.831 L 15.271,-3.82 C 10.5,-1.273 5.25,0 0,0"/>
        </g>
        <g transform="translate(128.0005,183.6982)" id="g58">
          <path id="path60" style="fill:#18d65a;fill-opacity:1;fill-rule:nonzero;stroke:none" d="m 0,0 c -5.249,0 -10.499,-1.273 -15.271,-3.819 l -68.208,-36.395 29.023,-15.487 39.185,20.909 c 4.772,2.546 10.022,3.82 15.271,3.82 5.25,0 10.5,-1.274 15.271,-3.82 L 54.456,-55.701 83.479,-40.214 15.271,-3.819 C 10.5,-1.273 5.25,0 0,0"/>
        </g>
        <g transform="translate(128.0005,152.7261)" id="g62">
          <path id="path64" style="fill:#13c952;fill-opacity:1;fill-rule:nonzero;stroke:none" d="m 0,0 c -5.249,0 -10.499,-1.273 -15.271,-3.819 l -39.185,-20.91 39.185,-20.907 c 4.772,-2.547 10.022,-3.82 15.271,-3.82 5.25,0 10.5,1.273 15.271,3.82 l 39.185,20.907 -39.185,20.91 C 10.5,-1.273 5.25,0 0,0"/>
        </g>
      </g>
    </g>
  </g>
</svg>