<?xml version="1.0" encoding="utf-8"?>
<svg xmlns="http://www.w3.org/2000/svg" viewBox="0 0 341.33334 341.33334" height="341.33334" width="341.33334" id="svg2" version="1.1">
  <defs id="defs6">
    <clipPath id="clipPath20" clipPathUnits="userSpaceOnUse">
      <path id="path18" d="M 0,256 H 256 V 0 H 0 Z"/>
    </clipPath>
  </defs>
  <g transform="matrix(1.3333333,0,0,-1.3333333,0,341.33333)" id="g10">
    <g clip-path="url(#clipPath20)" id="g16">
      <g transform="translate(108.3496,63)" id="g30"/>
      <g transform="translate(241.6475,97.0273)" id="g34"/>
      <g transform="translate(108.3496,63)" id="g38"/>
      <g transform="translate(211.4795,112.5107)" id="g42">
        <path id="path44" style="fill-opacity: 1; fill-rule: nonzero; stroke: none; fill: rgb(255, 255, 255);" d="M 0 0 L -68.208 -36.395 C -72.979 -38.941 -78.229 -40.214 -83.479 -40.214 C -88.728 -40.214 -93.978 -38.941 -98.75 -36.395 L -166.96 0 L -180.21 -7.07 C -186.94 -10.663 -186.94 -20.31 -180.21 -23.902 L -98.75 -67.368 C -93.978 -69.914 -88.728 -71.188 -83.479 -71.188 C -78.229 -71.188 -72.979 -69.914 -68.208 -67.368 L 13.252 -23.902 C 19.983 -20.31 19.983 -10.663 13.252 -7.07 L 0 0 Z M 30.168 -15.483 C 30.168 -23.406 25.832 -30.635 18.84 -34.369 L -62.621 -77.837 C -69.011 -81.252 -76.231 -83.05 -83.479 -83.05 C -90.727 -83.05 -97.948 -81.252 -104.34 -77.837 L -185.8 -34.369 C -192.79 -30.635 -197.13 -23.406 -197.13 -15.483 C -197.13 -7.559 -192.79 -0.32999999999999996 -185.8 3.395 L -172.54 10.469 C -170.8 11.4 -168.88 11.866 -166.96 11.866 C -165.04 11.866 -163.12 11.4 -161.37 10.469 L -93.165 -25.925 C -90.18 -27.523 -86.82 -28.308 -83.479 -28.308 C -80.13 -28.308 -76.779 -27.513 -73.794 -25.925 L -5.588 10.469 C -3.845 11.4 -1.9180000000000001 11.866 -0.001 11.866 C 1.925 11.866 3.842 11.4 5.585 10.469 L 18.84 3.404 C 25.832 -0.32999999999999996 30.168 -7.559 30.168 -15.483"/>
      </g>
      <g transform="translate(211.4795,143.4839)" id="g46">
        <path id="path48" style="fill-opacity: 1; fill-rule: nonzero; stroke: none; fill: rgb(255, 255, 255);" d="M 0,0 -29.023,-15.486 0,-30.973 l 13.252,7.071 c 6.731,3.592 6.731,13.24 0,16.831 z m -166.958,0 -13.252,-7.071 c -6.731,-3.591 -6.731,-13.239 0,-16.831 l 13.252,-7.071 29.023,15.487 z"/>
      </g>
      <g transform="translate(182.4561,127.9976)" id="g50">
        <path id="path52" style="fill-opacity: 1; fill-rule: nonzero; stroke: none; fill: rgba(0, 0, 0, 0);" d="m 0,0 -39.185,-20.908 c -4.771,-2.547 -10.021,-3.819 -15.271,-3.819 -5.249,0 -10.498,1.272 -15.27,3.819 L -108.911,0 l -29.024,-15.487 68.209,-36.394 c 4.772,-2.547 10.021,-3.82 15.27,-3.82 5.25,0 10.5,1.273 15.271,3.82 l 68.208,36.394 z"/>
      </g>
      <g transform="translate(128.0005,183.6982)" id="g58">
        <path id="path60" style="fill-opacity: 1; fill-rule: nonzero; stroke: none; fill: rgba(0, 0, 0, 0);" d="m 0,0 c -5.249,0 -10.499,-1.273 -15.271,-3.819 l -68.208,-36.395 29.023,-15.487 39.185,20.909 c 4.772,2.546 10.022,3.82 15.271,3.82 5.25,0 10.5,-1.274 15.271,-3.82 L 54.456,-55.701 83.479,-40.214 15.271,-3.819 C 10.5,-1.273 5.25,0 0,0"/>
      </g>
      <g transform="translate(230.3193,140.0859)" id="g26"/>
      <g transform="translate(128.0005,152.7261)" id="g62">
        <path id="path64" style="fill-opacity: 1; fill-rule: nonzero; stroke: none; fill: rgb(255, 255, 255);" d="m 0,0 c -5.249,0 -10.499,-1.273 -15.271,-3.819 l -39.185,-20.91 39.185,-20.907 c 4.772,-2.547 10.022,-3.82 15.271,-3.82 5.25,0 10.5,1.273 15.271,3.82 l 39.185,20.907 -39.185,20.91 C 10.5,-1.273 5.25,0 0,0"/>
      </g>
      <g transform="translate(128.0005,214.6719)" id="g54">
        <path id="path56" style="fill-opacity: 1; fill-rule: nonzero; stroke: none; fill: rgb(255, 255, 255);" d="M 0 0 C -5.249 0 -10.499 -1.2730000000000001 -15.271 -3.8200000000000003 L -96.731 -47.286 C -103.46 -50.878 -103.46 -60.526 -96.731 -64.117 L -83.479 -71.188 L -15.271 -34.792 C -10.499 -32.247 -5.249 -30.974 0 -30.974 C 5.25 -30.974 10.5 -32.247 15.271 -34.792 L 83.479 -71.188 L 96.731 -64.117 C 103.462 -60.526 103.462 -50.878 96.731 -47.286 L 15.271 -3.8200000000000003 C 10.5 -1.2730000000000001 5.25 0 0 0 M 102.319 -74.586 L 89.064 -81.661 C 87.321 -82.592 85.404 -83.057 83.478 -83.057 C 81.561 -83.057 79.634 -82.592 77.891 -81.661 L 9.685 -45.257 C 6.7 -43.669 3.349 -42.884 0 -42.884 C -3.341 -42.884 -6.701 -43.669 -9.685 -45.266 L -77.892 -81.661 C -79.636 -82.592 -81.561 -83.057 -83.478 -83.057 C -85.405 -83.057 -87.321 -82.592 -89.065 -81.661 L -102.32 -74.586 C -109.31 -70.853 -113.65 -63.623 -113.65 -55.7 C -113.65 -47.776 -109.31 -40.547 -102.32 -36.814 L -20.858 6.646 C -14.459 10.06 -7.239 11.868 0 11.868 C 7.248 11.868 14.468 10.06 20.858 6.646 L 102.319 -36.814 C 109.311 -40.547 113.647 -47.776 113.647 -55.7 C 113.647 -63.623 109.311 -70.853 102.319 -74.586"/>
      </g>
    </g>
  </g>
</svg>